<svg version="1.2" xmlns="http://www.w3.org/2000/svg" viewBox="0 0 381 381" width="381" height="381"><defs><linearGradient id="P" gradientUnits="userSpaceOnUse"/><linearGradient id="g1" x2="1" href="#P" gradientTransform="matrix(-332.077,0,0,-280.163,346.624,154.019)"><stop stop-color="#f8f2f8"/><stop offset=".07" stop-color="#ebe6ec"/><stop offset=".38" stop-color="#c5c4c8"/><stop offset=".64" stop-color="#a9aaae"/><stop offset=".86" stop-color="#999b9e"/><stop offset="1" stop-color="#939598"/></linearGradient><linearGradient id="g2" x2="1" href="#P" gradientTransform="matrix(-302.42,0,0,-231.317,347.002,150.207)"><stop stop-color="#9d9ea1"/><stop offset=".2" stop-color="#908ca0"/><stop offset=".62" stop-color="#72649c"/><stop offset="1" stop-color="#573c97"/></linearGradient><linearGradient id="g3" x2="1" href="#P" gradientTransform="matrix(183.116,0,0,49.08,128.652,115.159)"><stop stop-color="#f8f2f8"/><stop offset=".25" stop-color="#c2b5d9"/><stop offset=".77" stop-color="#725ba7"/><stop offset="1" stop-color="#573c97"/></linearGradient><linearGradient id="g4" x2="1" href="#P" gradientTransform="matrix(-211.911,0,0,-48.58,301.021,186.044)"><stop stop-color="#e3c7e0"/><stop offset=".12" stop-color="#d6b9d9"/><stop offset=".35" stop-color="#b597c7"/><stop offset=".66" stop-color="#876cb0"/><stop offset="1" stop-color="#563f99"/></linearGradient><linearGradient id="g5" x2="1" href="#P" gradientTransform="matrix(-171.171,0,0,-58.024,239.526,261.699)"><stop stop-color="#e3c7e0"/><stop offset=".24" stop-color="#e1c4de"/><stop offset=".4" stop-color="#d9bcda"/><stop offset=".52" stop-color="#cbaed3"/><stop offset=".63" stop-color="#ba9cc9"/><stop offset=".73" stop-color="#a486be"/><stop offset=".83" stop-color="#8c6fb1"/><stop offset=".92" stop-color="#7357a4"/><stop offset="1" stop-color="#573c97"/></linearGradient><linearGradient id="g6" x2="1" href="#P" gradientTransform="matrix(340.899,0,0,273.561,-1.296,208.127)"><stop stop-color="#f8f2f8"/><stop offset=".07" stop-color="#ebe6ec"/><stop offset=".38" stop-color="#c5c4c8"/><stop offset=".64" stop-color="#a9aaae"/><stop offset=".86" stop-color="#999b9e"/><stop offset="1" stop-color="#939598"/></linearGradient><linearGradient id="g7" x2="1" href="#P" gradientTransform="matrix(234.495,0,0,205.4,121.797,263.288)"><stop stop-color="#f8f2f8"/><stop offset=".07" stop-color="#ebe6ec"/><stop offset=".38" stop-color="#c5c4c8"/><stop offset=".64" stop-color="#a9aaae"/><stop offset=".86" stop-color="#999b9e"/><stop offset="1" stop-color="#939598"/></linearGradient></defs><style>tspan{white-space:pre}.a{fill:url(#g1)}.b{fill:url(#g2)}.c{fill:url(#g3)}.d{fill:url(#g4)}.e{fill:url(#g5)}.f{fill:url(#g6)}.g{fill:url(#g7)}.h{fill:#612dbb}</style><path class="a" d="m346.6 47.2c0 0-135-65.3-232.2-12.9-97.2 52.4-130.9 162.1-67.6 259.8h20c0 0-83-103.8 36.8-215.9 45-33.9 137.4-83.4 243-31z"/><path  d="m350 48.7c0 0-140.3-76.7-240.8-22.7-100.6 54.1-135.5 167.3-70 268.1h20.7c0 0-85.8-107.1 38.2-222.8 46.5-34.9 142.6-76.7 251.9-22.6z"/><path class="b" d="m297.3 41.9c0 0-112.4-42.5-220.5 76.7-61.4 89.4-16.1 147.3-16.1 147.3 0 0-8.4-84.7 66.2-145.5 74.5-60.8 149.4-74.5 220.1-55.7 0 0-41.3-36.7-162.6 4.7-61.7 27.8-76 54.3-76 54.3 0 0-8.7 3.7-8.8-4.8 8.6-8.6 75.5-87.5 197.7-77z"/><path class="c" d="m311.6 92l-27.4 47.7h-155.6c0 0 27.3-32.8 78.1-49.1h102.2c0 0 3.5 0 2.7 1.4z"/><path class="d" d="m109.2 161.8c0-0.1-18.5 16-27.2 48.5h182.7l29.3-48.6z"/><path class="e" d="m74.4 232.7c0 0-14.5 20.7 1.4 58h43.7c0 0 43.1-6.8 120-58z"/><path  d="m35.9 305.4c0 0 117.4 9 225.3-73.3 5.3-5.6 16.7-8.3 25.8-20.3 9.2-11.9 29-34.1 37.2-71.7 0 0-2.2 45.2-31.7 80.1-11.6 25.6-82 124.3-256.6 100.3 0 0 155.1 14.3 244.2-92.5 0 0-5.6 1.8-8.4 4.2-2.8 2.3-82.2 92.9-235.8 73.2z"/><path  d="m292.8 71.3c0 0 84.1 36.2 19 163.4l-39.3 46.9-66.8 35.9-110.4 24.5h-12.3c0 0 25.8 14.3 29.4 13.9 3.5-0.4 3.5-0.4 3.5-0.4 0 0 188.8 6.5 228.5-173 0 0 5.8-17 5.6-29.5 0 0 5.8 22 4.2 33-1.6 11.1-4.2 21.4-4.2 21.4l-17.5 54.3-28.6 38.9-38.8 31-78.6 29.9-54.1 1.5c0 0 102.3 31 169.5-26.6 67.2-57.6 113.3-161 24.2-267.5z"/><path class="f" d="m-1.3 311.4c0 0 166.9 80.4 296.3-78.7 0 0 39.8-43.8 30.8-111.3 0 0-10-35.3-33-50 0 0 53.6 24.2 46.1 96.9-3.2 37-37.8 121.2-144.3 161-38.5 13.9-110.8 33.7-195.9-17.9z"/><path class="g" d="m121.8 359.7c0 0 121.9 15.2 192.2-83.2 10.5-16.7 36.7-57.5 37.8-115.9 0 0 31.4 84.3-71.1 164.2 0 0-75.5 60.5-158.9 34.9z"/><path class="h" d="m368.1 61.5h-7.8c-3.2 0-5.7-2.6-5.7-5.7v-7.8c0-3.1 2.5-5.7 5.7-5.7h7.8c3.1 0 5.6 2.6 5.6 5.7v7.8c0 3.1-2.5 5.7-5.6 5.7z"/></svg>